<?xml version="1.0" standalone="no"?>
<!DOCTYPE svg PUBLIC "-//W3C//DTD SVG 20010904//EN"
 "http://www.w3.org/TR/2001/REC-SVG-20010904/DTD/svg10.dtd">
<svg version="1.0" xmlns="http://www.w3.org/2000/svg"
 width="300.000000pt" height="167.000000pt" viewBox="0 0 300.000000 167.000000"
 preserveAspectRatio="xMidYMid meet">
<metadata>
Created by potrace 1.10, written by Peter Selinger 2001-2011
</metadata>
<g transform="translate(0.000000,167.000000) scale(0.100000,-0.100000)"
fill="#000000" stroke="none">
<path d="M1859 1193 c-37 -23 -63 -75 -56 -112 17 -83 126 -121 183 -63 10 9
21 17 25 17 4 0 11 4 16 9 5 5 3 6 -4 2 -10 -5 -11 4 -7 38 5 30 2 51 -6 61
-7 8 -9 15 -4 15 5 0 -9 12 -31 25 -46 29 -79 31 -116 8z m115 -28 c20 -18 26
-34 26 -65 0 -88 -92 -124 -152 -59 -38 40 -37 82 1 120 38 38 87 39 125 4z"/>
<path d="M1440 960 c-36 -33 -122 -117 -192 -186 -132 -130 -146 -156 -83
-151 18 1 32 4 30 7 -6 9 157 88 192 94 22 4 35 0 45 -11 11 -14 11 -16 -1 -8
-9 5 -7 -2 5 -17 21 -28 47 -27 68 3 7 10 17 16 22 11 5 -4 6 -3 2 2 -13 16
13 36 46 36 24 0 41 -10 71 -41 21 -22 61 -56 88 -74 43 -29 52 -32 64 -19 10
10 12 24 8 45 -5 22 -4 29 4 25 6 -4 11 -4 11 1 0 4 14 16 32 26 18 10 27 12
20 5 -6 -8 -7 -19 -3 -27 8 -12 91 -55 91 -46 0 1 14 -10 30 -25 20 -18 37
-26 50 -23 11 3 26 0 34 -6 16 -13 77 -2 83 15 2 5 -12 27 -32 48 -19 21 -32
43 -28 49 3 6 1 7 -5 3 -7 -4 -42 22 -85 66 -40 40 -79 74 -85 76 -15 3 -71
-34 -129 -83 l-42 -36 -12 23 c-7 12 -17 28 -23 35 -24 26 -147 202 -144 206
7 8 -31 37 -49 37 -10 0 -47 -27 -83 -60z m196 -115 c60 -85 111 -154 114
-155 3 0 41 29 85 65 l80 65 109 -107 c61 -60 112 -109 115 -110 2 -2 2 -5 0
-7 -9 -9 -139 30 -151 45 -7 9 -35 24 -62 34 -42 15 -46 19 -30 28 11 5 20 11
22 13 2 1 -1 11 -7 23 -11 19 -13 19 -81 -20 -71 -41 -73 -45 -42 -81 45 -53
-71 19 -133 82 -42 42 -55 50 -87 50 -32 0 -41 -5 -70 -46 l-33 -46 -14 46
c-11 36 -18 45 -30 40 -9 -4 -36 -12 -61 -19 -40 -11 -94 -39 -195 -99 -16
-10 56 66 160 168 105 102 193 186 196 186 3 0 55 -70 115 -155z"/>
<path d="M547 523 c-47 -29 -70 -80 -68 -148 2 -92 13 -117 67 -155 30 -20 42
-22 91 -17 46 5 61 11 76 31 l18 26 22 -24 c35 -37 67 -46 111 -31 20 7 43 21
50 31 14 18 41 11 30 -8 -4 -6 -2 -8 4 -4 5 3 12 1 14 -5 2 -6 26 -14 54 -16
43 -4 54 -2 80 20 l29 25 28 -24 c23 -20 38 -23 90 -23 34 1 67 5 72 9 6 5 28
4 51 -2 58 -16 105 -4 129 32 l20 31 23 -26 c12 -14 22 -22 22 -18 0 4 4 2 8
-5 12 -19 85 -23 118 -6 27 14 52 42 66 74 4 9 7 1 7 -20 1 -19 5 -40 9 -46
12 -19 50 -22 71 -7 18 12 21 25 21 79 0 35 4 64 10 64 5 0 8 -27 6 -61 -3
-57 8 -87 32 -90 4 0 15 -2 25 -4 20 -4 47 30 47 59 0 16 3 15 21 -8 52 -66
136 -71 192 -10 l25 27 17 -26 c18 -27 54 -43 96 -42 28 1 82 41 88 66 19 79
-10 163 -61 173 -59 12 -79 7 -114 -28 -19 -19 -34 -30 -34 -25 0 5 -10 10
-22 10 -14 1 -17 3 -8 5 9 3 21 13 27 23 10 15 7 26 -14 58 -27 43 -26 42 -93
48 -42 3 -48 0 -87 -41 -24 -24 -43 -54 -43 -65 0 -20 -1 -20 -31 5 -32 27
-42 30 -74 17 -11 -5 -25 -4 -31 0 -7 6 -22 5 -38 -1 -14 -5 -26 -6 -26 -2 0
4 -5 0 -10 -8 -8 -12 -10 -11 -10 6 0 37 -61 84 -121 93 -30 5 -56 7 -58 5 -2
-2 1 -4 8 -4 7 0 9 -5 6 -10 -4 -6 -16 -8 -28 -5 -12 2 -16 2 -9 -1 9 -4 4
-16 -18 -40 -16 -19 -30 -39 -30 -45 0 -6 -10 -3 -22 5 -28 20 -65 20 -102 1
-15 -8 -30 -15 -32 -15 -1 0 -4 21 -6 47 -2 39 -8 50 -30 62 -25 14 -29 14
-51 -7 -17 -16 -23 -30 -19 -47 3 -20 0 -25 -17 -25 -30 0 -77 -26 -85 -46 -5
-14 -10 -13 -30 9 -43 47 -101 48 -149 3 -25 -23 -26 -23 -43 -5 -41 45 -135
45 -167 -2 -17 -23 -30 -14 -15 11 9 14 7 25 -8 51 -36 62 -116 81 -177 42z
m129 -21 c21 -16 49 -61 42 -66 -2 -2 -14 -6 -28 -9 -20 -5 -28 -1 -35 16 -13
29 -49 33 -74 8 -30 -30 -30 -132 -1 -161 33 -33 80 -23 80 16 0 19 -5 24 -24
24 -21 0 -24 5 -23 26 2 25 5 27 52 27 47 0 50 -2 53 -28 7 -55 -7 -95 -41
-116 -38 -24 -98 -20 -129 8 -67 59 -63 196 7 251 34 27 91 29 121 4z m637
-129 c-3 -135 -4 -148 -20 -145 -10 2 -19 8 -21 13 -2 5 -14 1 -28 -7 -53 -35
-104 13 -104 98 0 73 45 118 93 93 l27 -14 0 55 c0 52 1 54 28 54 l27 0 -2
-147z m387 120 c56 -52 64 -154 17 -224 -58 -87 -184 -48 -201 62 -16 106 35
189 114 189 29 0 47 -7 70 -27z m451 17 c16 -9 49 -58 49 -73 0 -3 -9 -7 -21
-10 -15 -4 -28 2 -43 20 -29 34 -68 26 -86 -17 -17 -42 -8 -129 16 -147 24
-17 49 -17 68 3 24 23 20 44 -9 44 -21 0 -25 5 -25 28 0 26 1 27 50 24 l50 -4
0 -50 c0 -42 -5 -54 -30 -80 -28 -28 -35 -30 -78 -25 -82 9 -120 81 -103 191
14 84 94 132 162 96z m-17 -85 c16 -25 16 -25 -14 -25 -24 0 -31 -5 -36 -26
-4 -14 -1 -36 6 -50 14 -26 9 -41 -10 -29 -6 4 -9 13 -6 21 3 8 1 14 -4 14
-17 0 -12 87 6 104 22 23 39 20 58 -9z m-1496 -2 c2 -7 -2 -13 -9 -13 -7 0
-20 -7 -30 -16 -17 -16 -18 -15 -6 15 11 31 36 39 45 14z m221 6 c65 -23 84
-128 32 -180 -70 -70 -167 -1 -147 104 6 33 36 69 66 80 8 3 15 6 16 6 1 1 15
-4 33 -10z m234 -30 c31 -34 36 -83 12 -129 -20 -39 -49 -53 -92 -45 -66 12
-96 113 -52 169 42 53 85 54 132 5z m384 21 c8 0 1 -28 -8 -37 -8 -8 -16 -9
-29 -1 -10 6 -25 8 -35 4 -14 -5 -15 -9 -5 -21 7 -8 18 -15 26 -15 7 0 25 -10
40 -23 68 -59 -35 -139 -115 -88 -10 6 -11 13 -2 29 10 19 14 20 37 7 27 -14
54 -10 54 6 0 5 -12 15 -27 21 -44 19 -63 39 -63 68 0 46 44 73 95 58 16 -4
31 -8 32 -8z m461 -8 c6 -9 12 -27 13 -41 0 -14 1 -52 2 -83 2 -55 1 -57 -25
-61 l-28 -4 0 73 c0 75 -12 100 -43 88 -18 -6 -31 -71 -25 -124 3 -30 0 -33
-24 -34 l-28 -2 0 103 0 103 25 0 c14 0 25 -4 25 -9 0 -6 12 -3 28 4 30 16 61
11 80 -13z m411 17 c55 -19 78 -97 46 -159 -30 -58 -90 -67 -136 -21 -50 50
-37 145 25 175 17 9 31 16 32 16 1 0 15 -5 33 -11z m-855 -74 c3 -8 1 -15 -4
-15 -6 0 -10 7 -10 15 0 8 2 15 4 15 2 0 6 -7 10 -15z m-884 -45 c0 -5 -2 -10
-4 -10 -3 0 -8 5 -11 10 -3 6 -1 10 4 10 6 0 11 -4 11 -10z"/>
<path d="M1206 374 c-33 -32 -10 -110 30 -103 35 7 29 119 -7 119 -4 0 -15 -7
-23 -16z m25 -67 c-8 -8 -11 -3 -11 19 1 25 2 27 11 11 8 -14 8 -22 0 -30z"/>
<path d="M1591 444 c-31 -39 -29 -117 4 -149 13 -14 29 -25 35 -25 6 0 22 11
35 25 19 19 25 35 25 70 0 94 -54 136 -99 79z m67 -6 c7 -7 12 -35 12 -63 0
-56 -12 -75 -48 -75 -18 0 -23 4 -18 16 3 8 2 12 -4 9 -6 -4 -10 15 -10 49 0
42 4 57 18 65 23 14 36 13 50 -1z"/>
<path d="M813 378 c-33 -41 -20 -112 19 -106 14 2 26 14 32 31 18 51 -22 111
-51 75z m27 -50 c0 -12 -3 -18 -7 -14 -11 10 -12 36 -2 36 5 0 9 -10 9 -22z"/>
<path d="M1006 368 c-19 -27 -20 -58 -3 -82 35 -48 86 28 53 79 -20 31 -30 31
-50 3z m34 -32 c0 -14 -4 -28 -10 -31 -6 -4 -10 7 -10 24 0 17 5 31 10 31 6 0
10 -11 10 -24z"/>
<path d="M2290 371 c-21 -41 -4 -101 29 -101 19 0 41 38 41 70 0 22 -25 50
-45 50 -8 0 -19 -9 -25 -19z m50 -34 c0 -29 -15 -51 -29 -43 -15 10 -14 63 2
69 18 7 27 -2 27 -26z"/>
</g>
</svg>
